<?xml version="1.0" encoding="UTF-8"?>
<svg width="20px" height="18px" viewBox="0 0 20 18" version="1.1" xmlns="http://www.w3.org/2000/svg" xmlns:xlink="http://www.w3.org/1999/xlink">
    <!-- Generator: Sketch 49 (51002) - http://www.bohemiancoding.com/sketch -->
    <desc>Created with Sketch.</desc>
    <defs></defs>
    <g id="Page-1" stroke="none" stroke-width="1" fill="none" fill-rule="evenodd">
        <path d="M18.6666667,14.1999061 C18.6666667,13.8300675 18.3646296,13.5238095 18.0000926,13.5238095 L16.6666667,13.5238095 C16.3021296,13.5238095 16,13.8300675 16,14.1999061 L16,15.552287 C16,15.9221257 16.3021296,16.2285714 16.6666667,16.2285714 L18.0000926,16.2285714 C18.3646296,16.2285714 18.6666667,15.9221257 18.6666667,15.552287 L18.6666667,14.1999061 Z M18.6666667,10.1428571 C18.6666667,9.77301852 18.3646296,9.46666667 18.0000926,9.46666667 L16.6666667,9.46666667 C16.3021296,9.46666667 16,9.77301852 16,10.1428571 L16,11.4951442 C16,11.8649828 16.3021296,12.1713347 16.6666667,12.1713347 L18.0000926,12.1713347 C18.3646296,12.1713347 18.6666667,11.8649828 18.6666667,11.4951442 L18.6666667,10.1428571 Z M18.6666667,6.08571429 C18.6666667,5.71587566 18.3646296,5.40942989 18.0000926,5.40942989 L16.6666667,5.40942989 C16.3021296,5.40942989 16,5.71587566 16,6.08571429 L16,7.43800132 C16,7.80774603 16.3021296,8.1141918 16.6666667,8.1141918 L18.0000926,8.1141918 C18.3646296,8.1141918 18.6666667,7.80774603 18.6666667,7.43800132 L18.6666667,6.08571429 Z M18.6666667,2.02847751 C18.6666667,1.6587328 18.3646296,1.35228704 18.0000926,1.35228704 L16.6666667,1.35228704 C16.3021296,1.35228704 16,1.6587328 16,2.02847751 L16,3.38095238 C16,3.75069709 16.3021296,4.05704894 16.6666667,4.05704894 L18.0000926,4.05704894 C18.3646296,4.05704894 18.6666667,3.75069709 18.6666667,3.38095238 L18.6666667,2.02847751 Z M14.6667593,10.1428571 C14.6667593,9.77301852 14.3646296,9.46666667 14.0000926,9.46666667 L6,9.46666667 C5.63546296,9.46666667 5.33333333,9.77301852 5.33333333,10.1428571 L5.33333333,15.552287 C5.33333333,15.9221257 5.63546296,16.2285714 6,16.2285714 L14.0000926,16.2285714 C14.3646296,16.2285714 14.6667593,15.9221257 14.6667593,15.552287 L14.6667593,10.1428571 Z M14.6667593,2.02847751 C14.6667593,1.6587328 14.3646296,1.35228704 14.0000926,1.35228704 L6,1.35228704 C5.63546296,1.35228704 5.33333333,1.6587328 5.33333333,2.02847751 L5.33333333,7.43800132 C5.33333333,7.80774603 5.63546296,8.1141918 6,8.1141918 L14.0000926,8.1141918 C14.3646296,8.1141918 14.6667593,7.80774603 14.6667593,7.43800132 L14.6667593,2.02847751 Z M4.00009259,14.1999061 C4.00009259,13.8300675 3.69796296,13.5238095 3.33333333,13.5238095 L2,13.5238095 C1.63546296,13.5238095 1.33342593,13.8300675 1.33342593,14.1999061 L1.33342593,15.552287 C1.33342593,15.9221257 1.63546296,16.2285714 2,16.2285714 L3.33333333,16.2285714 C3.69796296,16.2285714 4.00009259,15.9221257 4.00009259,15.552287 L4.00009259,14.1999061 Z M4.00009259,10.1428571 C4.00009259,9.77301852 3.69796296,9.46666667 3.33333333,9.46666667 L2,9.46666667 C1.63546296,9.46666667 1.33342593,9.77301852 1.33342593,10.1428571 L1.33342593,11.4951442 C1.33342593,11.8649828 1.63546296,12.1713347 2,12.1713347 L3.33333333,12.1713347 C3.69796296,12.1713347 4.00009259,11.8649828 4.00009259,11.4951442 L4.00009259,10.1428571 Z M4.00009259,6.08571429 C4.00009259,5.71587566 3.69796296,5.40942989 3.33333333,5.40942989 L2,5.40942989 C1.63546296,5.40942989 1.33342593,5.71587566 1.33342593,6.08571429 L1.33342593,7.43800132 C1.33342593,7.80774603 1.63546296,8.1141918 2,8.1141918 L3.33333333,8.1141918 C3.69796296,8.1141918 4.00009259,7.80774603 4.00009259,7.43800132 L4.00009259,6.08571429 Z M4.00009259,2.02847751 C4.00009259,1.6587328 3.69796296,1.35228704 3.33333333,1.35228704 L2,1.35228704 C1.63546296,1.35228704 1.33342593,1.6587328 1.33342593,2.02847751 L1.33342593,3.38095238 C1.33342593,3.75069709 1.63546296,4.05704894 2,4.05704894 L3.33333333,4.05704894 C3.69796296,4.05704894 4.00009259,3.75069709 4.00009259,3.38095238 L4.00009259,2.02847751 Z M20,15.8903823 C20,16.8201442 19.2500926,17.5808585 18.3333333,17.5808585 L1.66666667,17.5808585 C0.75,17.5808585 0,16.8201442 0,15.8903823 L0,1.69047619 C0,0.76062037 0.75,0 1.66666667,0 L18.3333333,0 C19.2500926,0 20,0.76062037 20,1.69047619 L20,15.8903823 Z" id="icon02" fill="#B1B1B1"></path>
    </g>
</svg>