<?xml version="1.0" encoding="UTF-8"?>
<svg width="20px" height="21px" viewBox="0 0 20 21" version="1.1" xmlns="http://www.w3.org/2000/svg" xmlns:xlink="http://www.w3.org/1999/xlink">
    <!-- Generator: Sketch 49 (51002) - http://www.bohemiancoding.com/sketch -->
    <desc>Created with Sketch.</desc>
    <defs></defs>
    <g id="Page-1" stroke="none" stroke-width="1" fill="none" fill-rule="evenodd">
        <path d="M15.2680215,8.60057579 L8.47948722,15.4860891 L4.72910817,11.6822271 L11.5175498,4.7966199 L15.2680215,8.60057579 Z M16.3476536,9.14237467 C16.6443209,8.84137529 16.6443209,8.35987021 16.3476536,8.05887084 L12.0517177,3.70156445 C11.7669022,3.41239844 11.26829,3.41239844 10.9835671,3.70156445 L3.64938345,11.1405222 C3.3526235,11.4414276 3.3526235,11.9230266 3.64938345,12.2238382 L7.94531932,16.5813324 C8.08772705,16.7260562 8.27782009,16.7981834 8.47948722,16.7981834 C8.68096917,16.7981834 8.87115479,16.7260562 9.01346994,16.5813324 L16.3476536,9.14237467 Z M8.79995093,19.8434894 C8.20661622,20.4331852 7.23318804,20.4331852 6.65170521,19.8434894 L5.15651657,18.326847 C6.04651863,17.4238489 6.04651863,15.955573 5.15651657,15.0525749 C4.26614413,14.1498585 2.81864078,14.1498585 1.92826835,15.0525749 L0.444931585,13.5360264 C-0.148310528,12.9462366 -0.148310528,11.9589024 0.444931585,11.3570914 L11.2090306,0.451428624 C11.7903282,-0.150476208 12.763849,-0.150476208 13.3571837,0.451428624 L14.8405205,1.955862 C13.9505184,2.85895404 13.9505184,4.32713601 14.8405205,5.23022805 C15.7308929,6.13294442 17.1783962,6.13294442 18.0687687,5.23022805 L19.5639573,6.73475534 C20.1453476,7.33656626 20.1453476,8.32390055 19.5639573,8.91359636 L8.79995093,19.8434894 Z" id="icon07" fill="#B1B1B1"></path>
    </g>
</svg>