<?xml version="1.0" encoding="UTF-8"?>
<svg width="20px" height="20px" viewBox="0 0 20 20" version="1.1" xmlns="http://www.w3.org/2000/svg" xmlns:xlink="http://www.w3.org/1999/xlink">
    <!-- Generator: Sketch 49 (51002) - http://www.bohemiancoding.com/sketch -->
    <desc>Created with Sketch.</desc>
    <defs></defs>
    <g id="Page-1" stroke="none" stroke-width="1" fill="none" fill-rule="evenodd">
        <path d="M11.4905359,13.3731064 L11.4905359,19.0038138 C11.4905359,19.3885859 11.1527573,19.707617 10.7452564,19.707617 L9.25478994,19.707617 C8.84738159,19.707617 8.50960303,19.3885859 8.50960303,19.0038138 L8.50960303,13.3731064 L11.4905359,13.3731064 Z M19.8861108,3.7725881 L18.2444404,5.32294618 C18.0349029,5.5210141 17.7436985,5.63089531 17.4525867,5.63089531 L1.80227269,5.63089531 C1.39486434,5.63089531 1.05699319,5.31177023 1.05699319,4.92690426 L1.05699319,2.11159748 C1.05699319,1.72682543 1.39486434,1.40779426 1.80227269,1.40779426 L8.50960303,1.40779426 L8.50960303,0.703991048 C8.50960303,0.319125077 8.84738159,0 9.25478994,0 L10.7452564,0 C11.1527573,0 11.4905359,0.319125077 11.4905359,0.703991048 L11.4905359,1.40779426 L17.4525867,1.40779426 C17.7436985,1.40779426 18.0349029,1.51758156 18.2444404,1.71555556 L19.8861108,3.26600756 C20.0379631,3.40941662 20.0379631,3.62908512 19.8861108,3.7725881 Z M18.9430531,9.15000531 L18.9430531,11.965406 C18.9430531,12.3500841 18.6052745,12.6692092 18.1977736,12.6692092 L2.5474596,12.6692092 C2.25634782,12.6692092 1.96523603,12.5594219 1.75551332,12.3614479 L0.114028042,10.8109959 C-0.0380093472,10.6674929 -0.0380093472,10.4479184 0.114028042,10.3043215 L1.75551332,8.75396339 C1.96523603,8.55598938 2.25634782,8.44620209 2.5474596,8.44620209 L8.50960303,8.44620209 L8.50960303,6.33469853 L11.4905359,6.33469853 L11.4905359,8.44620209 L18.1977736,8.44620209 C18.6052745,8.44620209 18.9430531,8.76523325 18.9430531,9.15000531 Z" id="icon06" fill="#B1B1B1"></path>
    </g>
</svg>