<?xml version="1.0" encoding="UTF-8"?>
<svg width="20px" height="19px" viewBox="0 0 20 19" version="1.1" xmlns="http://www.w3.org/2000/svg" xmlns:xlink="http://www.w3.org/1999/xlink">
    <!-- Generator: Sketch 49 (51002) - http://www.bohemiancoding.com/sketch -->
    <desc>Created with Sketch.</desc>
    <defs></defs>
    <g id="Page-1" stroke="none" stroke-width="1" fill="none" fill-rule="evenodd">
        <path d="M15.3846296,1.69376323 C15.3846296,1.50320899 15.2164815,1.3551045 15,1.3551045 L14.2307407,1.3551045 C14.0143519,1.3551045 13.8462037,1.50320899 13.8462037,1.69376323 L13.8462037,4.74272487 C13.8462037,4.9332791 14.0143519,5.08147751 14.2307407,5.08147751 L15,5.08147751 C15.2164815,5.08147751 15.3846296,4.9332791 15.3846296,4.74272487 L15.3846296,1.69376323 Z M9.50759259,15.6256349 C9.35083333,15.7529841 9.11074074,15.7529841 8.95398148,15.6256349 L5.49240741,12.5767672 C5.3487037,12.439369 5.3487037,12.2271204 5.49240741,12.1007103 L6.04611111,11.612914 C6.18972222,11.4863161 6.43074074,11.4863161 6.58657407,11.612914 L9.23074074,13.942672 L14.5672222,9.24155159 C14.7231481,9.1149537 14.9640741,9.1149537 15.1077778,9.24155159 L15.6614815,9.72934788 C15.8051852,9.85575794 15.8051852,10.0680066 15.6614815,10.2054048 L9.50759259,15.6256349 Z M6.15388889,1.69376323 C6.15388889,1.50320899 5.98564815,1.3551045 5.76925926,1.3551045 L5,1.3551045 C4.78361111,1.3551045 4.61537037,1.50320899 4.61537037,1.69376323 L4.61537037,4.74272487 C4.61537037,4.9332791 4.78361111,5.08147751 5,5.08147751 L5.76925926,5.08147751 C5.98564815,5.08147751 6.15388889,4.9332791 6.15388889,4.74272487 L6.15388889,1.69376323 Z M1.53842593,17.615795 L18.4614815,17.615795 L18.4614815,6.77524074 L1.53842593,6.77524074 L1.53842593,17.615795 Z M20,17.615795 C20,18.3565992 19.3025926,18.9708995 18.4614815,18.9708995 L1.53851852,18.9708995 C0.697407407,18.9708995 0,18.3565992 0,17.615795 L0,4.06512566 C0,3.32432143 0.697407407,2.71011508 1.53851852,2.71011508 L3.07694444,2.71011508 L3.07694444,1.69376323 C3.07694444,0.762404762 3.94259259,0 5,0 L5.76925926,0 C6.82666667,0 7.69231481,0.762404762 7.69231481,1.69376323 L7.69231481,2.71011508 L12.3077778,2.71011508 L12.3077778,1.69376323 C12.3077778,0.762404762 13.1733333,0 14.2307407,0 L15,0 C16.0575,0 16.9230556,0.762404762 16.9230556,1.69376323 L16.9230556,2.71011508 L18.4614815,2.71011508 C19.3025926,2.71011508 20,3.32432143 20,4.06512566 L20,17.615795 Z" id="icon08" fill="#B1B1B1"></path>
    </g>
</svg>