<?xml version="1.0" encoding="UTF-8"?>
<svg width="20px" height="13px" viewBox="0 0 20 13" version="1.1" xmlns="http://www.w3.org/2000/svg" xmlns:xlink="http://www.w3.org/1999/xlink">
    <!-- Generator: Sketch 49 (51002) - http://www.bohemiancoding.com/sketch -->
    <desc>Created with Sketch.</desc>
    <defs></defs>
    <g id="Page-1" stroke="none" stroke-width="1" fill="none" fill-rule="evenodd">
        <path d="M12.4999884,2.53573072 L12.4999884,10.1428665 C12.4999884,11.5295253 11.3671191,12.6785785 9.99999074,12.6785785 L2.49999769,12.6785785 C1.13286932,12.6785785 0,11.5295253 0,10.1428665 L0,2.53573072 C0,1.14907195 1.13286932,1.87830514e-05 2.49999769,1.87830514e-05 L9.99999074,1.87830514e-05 C11.3671191,1.87830514e-05 12.4999884,1.14907195 12.4999884,2.53573072 Z M19.7870372,0.153551445 C19.9194445,0.27404472 20,0.449008844 20,0.633740154 L20,12.0449135 C20,12.2296448 19.9194445,12.404515 19.7871298,12.5250082 C19.6835188,12.619487 19.54713,12.668229 19.4081487,12.6775266 C19.3970376,12.678184 19.3860191,12.6785597 19.3750006,12.6785597 C19.218797,12.6785597 19.0429638,12.6189235 18.9258343,12.5002146 L14.1078758,6.7372927 C13.9015797,6.49057732 13.9025056,6.12844009 14.1099129,5.88275778 L18.9258343,0.178438988 C19.0429638,0.0596361882 19.218797,0 19.3750006,0 C19.3860191,0 19.3970376,0.000375661028 19.4081487,0.00112698308 C19.54713,0.0104245935 19.6835188,0.0590726966 19.7870372,0.153551445 Z" id="icon03" fill="#B1B1B1"></path>
    </g>
</svg>