<?xml version="1.0" encoding="UTF-8"?>
<svg width="20px" height="16px" viewBox="0 0 20 16" version="1.1" xmlns="http://www.w3.org/2000/svg" xmlns:xlink="http://www.w3.org/1999/xlink">
    <!-- Generator: Sketch 49 (51002) - http://www.bohemiancoding.com/sketch -->
    <desc>Created with Sketch.</desc>
    <defs></defs>
    <g id="Page-1" stroke="none" stroke-width="1" fill="none" fill-rule="evenodd">
        <path d="M20,14.8520542 C20,15.4519854 19.52,15.9387487 18.9286111,15.9387487 L15.3571296,15.9387487 C14.7657407,15.9387487 14.2857407,15.4519854 14.2857407,14.8520542 L14.2857407,12.6785714 C14.2857407,12.0787341 14.7657407,11.591877 15.3571296,11.591877 L18.9286111,11.591877 C19.52,11.591877 20,12.0787341 20,12.6785714 L20,14.8520542 Z M20,9.0561627 C20,9.65609392 19.52,10.1428571 18.9286111,10.1428571 L15.3571296,10.1428571 C14.7657407,10.1428571 14.2857407,9.65609392 14.2857407,9.0561627 L14.2857407,6.88277381 C14.2857407,6.28284259 14.7657407,5.79589153 15.3571296,5.79589153 L18.9286111,5.79589153 C19.52,5.79589153 20,6.28284259 20,6.88277381 L20,9.0561627 Z M20,3.26017725 C20,3.86010847 19.52,4.34705952 18.9286111,4.34705952 L15.3571296,4.34705952 C14.7657407,4.34705952 14.2857407,3.86010847 14.2857407,3.26017725 L14.2857407,1.08678836 C14.2857407,0.486857143 14.7657407,0 15.3571296,0 L18.9286111,0 C19.52,0 20,0.486857143 20,1.08678836 L20,3.26017725 Z M12.8571296,14.8520542 C12.8571296,15.4519854 12.3771296,15.9387487 11.7857407,15.9387487 L8.21425926,15.9387487 C7.62287037,15.9387487 7.14287037,15.4519854 7.14287037,14.8520542 L7.14287037,12.6785714 C7.14287037,12.0787341 7.62287037,11.591877 8.21425926,11.591877 L11.7857407,11.591877 C12.3771296,11.591877 12.8571296,12.0787341 12.8571296,12.6785714 L12.8571296,14.8520542 Z M12.8571296,9.0561627 C12.8571296,9.65609392 12.3771296,10.1428571 11.7857407,10.1428571 L8.21425926,10.1428571 C7.62287037,10.1428571 7.14287037,9.65609392 7.14287037,9.0561627 L7.14287037,6.88277381 C7.14287037,6.28284259 7.62287037,5.79589153 8.21425926,5.79589153 L11.7857407,5.79589153 C12.3771296,5.79589153 12.8571296,6.28284259 12.8571296,6.88277381 L12.8571296,9.0561627 Z M12.8571296,3.26017725 C12.8571296,3.86010847 12.3771296,4.34705952 11.7857407,4.34705952 L8.21425926,4.34705952 C7.62287037,4.34705952 7.14287037,3.86010847 7.14287037,3.26017725 L7.14287037,1.08678836 C7.14287037,0.486857143 7.62287037,0 8.21425926,0 L11.7857407,0 C12.3771296,0 12.8571296,0.486857143 12.8571296,1.08678836 L12.8571296,3.26017725 Z M5.71425926,14.8520542 C5.71425926,15.4519854 5.23425926,15.9387487 4.64287037,15.9387487 L1.07138889,15.9387487 C0.48,15.9387487 0,15.4519854 0,14.8520542 L0,12.6785714 C0,12.0787341 0.48,11.591877 1.07138889,11.591877 L4.64287037,11.591877 C5.23425926,11.591877 5.71425926,12.0787341 5.71425926,12.6785714 L5.71425926,14.8520542 Z M5.71425926,9.0561627 C5.71425926,9.65609392 5.23425926,10.1428571 4.64287037,10.1428571 L1.07138889,10.1428571 C0.48,10.1428571 0,9.65609392 0,9.0561627 L0,6.88277381 C0,6.28284259 0.48,5.79589153 1.07138889,5.79589153 L4.64287037,5.79589153 C5.23425926,5.79589153 5.71425926,6.28284259 5.71425926,6.88277381 L5.71425926,9.0561627 Z M5.71425926,3.26017725 C5.71425926,3.86010847 5.23425926,4.34705952 4.64287037,4.34705952 L1.07138889,4.34705952 C0.48,4.34705952 0,3.86010847 0,3.26017725 L0,1.08678836 C0,0.486857143 0.48,0 1.07138889,0 L4.64287037,0 C5.23425926,0 5.71425926,0.486857143 5.71425926,1.08678836 L5.71425926,3.26017725 Z" id="icon04" fill="#B1B1B1"></path>
    </g>
</svg>