<?xml version="1.0" encoding="UTF-8"?>
<svg width="20px" height="17px" viewBox="0 0 20 17" version="1.1" xmlns="http://www.w3.org/2000/svg" xmlns:xlink="http://www.w3.org/1999/xlink">
    <!-- Generator: Sketch 49 (51002) - http://www.bohemiancoding.com/sketch -->
    <desc>Created with Sketch.</desc>
    <defs></defs>
    <g id="Page-1" stroke="none" stroke-width="1" fill="none" fill-rule="evenodd">
        <path d="M17.1451825,15.3406431 C17.1451825,15.7808241 16.7854604,16.1458729 16.3512939,16.1458729 L11.5877772,16.1458729 L11.5877772,11.3143999 L8.41222282,11.3143999 L8.41222282,16.1458729 L3.64870608,16.1458729 C3.21453958,16.1458729 2.85481749,15.7808241 2.85481749,15.3406431 L2.85481749,9.30123131 C2.85481749,9.27615592 2.86722489,9.2508927 2.86722489,9.2257234 L10,3.26191346 L17.1327751,9.2257234 C17.1451825,9.2508927 17.1451825,9.27615592 17.1451825,9.30123131 L17.1451825,15.3406431 Z M19.1423114,9.36406065 C19.0802744,9.43966247 18.9811077,9.49000108 18.8818485,9.50258573 L18.8446263,9.50258573 C18.7453671,9.50258573 18.6585153,9.47741643 18.5841635,9.41439925 L10,2.15465197 L1.41583655,9.41439925 C1.32907732,9.47741643 1.22972551,9.51517038 1.11815147,9.50258573 C1.01889225,9.49000108 0.919725622,9.43966247 0.857688608,9.36406065 L0.088522229,8.43307819 C-0.0478666088,8.26957164 -0.0230518033,8.00529396 0.13815184,7.86695671 L9.05722258,0.330347099 C9.5782409,-0.1101157 10.4217591,-0.1101157 10.9427774,0.330347099 L13.9695356,2.89705249 L13.9695356,0.443515046 C13.9695356,0.217085236 14.1432392,0.040900117 14.3664798,0.040900117 L16.7482382,0.040900117 C16.9714789,0.040900117 17.1451825,0.217085236 17.1451825,0.443515046 L17.1451825,5.57692582 L19.8618482,7.86695671 C20.0230518,8.00529396 20.0478666,8.26957164 19.9114778,8.43307819 L19.1423114,9.36406065 Z" id="icon01" fill="#FF0079"></path>
    </g>
</svg>