<?xml version="1.0" encoding="UTF-8"?>
<svg width="364px" height="460px" viewBox="0 0 364 460" version="1.1" xmlns="http://www.w3.org/2000/svg" xmlns:xlink="http://www.w3.org/1999/xlink">
    <!-- Generator: Sketch 49 (51002) - http://www.bohemiancoding.com/sketch -->
    <desc>Created with Sketch.</desc>
    <defs></defs>
    <g id="Page-1" stroke="none" stroke-width="1" fill="none" fill-rule="evenodd">
        <g>
            <path d="M359.081159,350.417421 L157.31161,206.6933 C156.488972,206.106562 156,205.157068 156,204.145493 L156,3.13038671 C156,0.592317196 158.85618,-0.886701732 160.918841,0.5825788 L362.68839,144.307917 C363.511028,144.893438 364,145.842932 364,146.854507 L364,347.869613 C364,350.407683 361.14382,351.886702 359.081159,350.417421" id="Fill-4" fill="#F29A4B"></path>
            <path d="M307.081159,387.417421 L105.312823,243.6933 C104.488972,243.106562 104,242.157068 104,241.145493 L104,40.1303867 C104,37.5923172 106.85618,36.1132983 108.918841,37.5825788 L310.68839,181.307917 C311.511028,181.893438 312,182.842932 312,183.854507 L312,384.869613 C312,387.407683 309.14382,388.886702 307.081159,387.417421" id="Fill-6" fill="#F9B844"></path>
            <path d="M255.081159,422.417421 L53.3116101,278.6933 C52.4889721,278.106562 52,277.157068 52,276.145493 L52,75.1303867 C52,72.5923172 54.8561795,71.1132983 56.918841,72.5825788 L258.68839,216.307917 C259.511028,216.893438 260,217.842932 260,218.854507 L260,419.869613 C260,422.407683 257.14382,423.886702 255.081159,422.417421" id="Fill-8" fill="#FED668"></path>
            <path d="M203.081159,459.417421 L1.31161005,315.6933 C0.488972111,315.106562 0,314.157068 0,313.145493 L0,112.130387 C0,109.592317 2.85617953,108.113298 4.91884104,109.582579 L206.68839,253.307917 C207.511028,253.893438 208,254.842932 208,255.854507 L208,456.869613 C208,459.407683 205.14382,460.886702 203.081159,459.417421" id="Fill-10" fill="#F9CE34"></path>
        </g>
    </g>
</svg>