<?xml version="1.0" encoding="UTF-8"?>
<svg width="22px" height="22px" viewBox="0 0 22 22" version="1.1" xmlns="http://www.w3.org/2000/svg" xmlns:xlink="http://www.w3.org/1999/xlink">
    <!-- Generator: Sketch 49 (51002) - http://www.bohemiancoding.com/sketch -->
    <desc>Created with Sketch.</desc>
    <defs></defs>
    <g id="Page-1" stroke="none" stroke-width="1" fill="none" fill-rule="evenodd">
        <g id="conf-icon" transform="translate(1.000000, 1.000000)" stroke="#43484D" stroke-width="2">
            <path d="M13,9.85714286 C13,11.4352381 11.657,12.7142857 10,12.7142857 C8.343,12.7142857 7,11.4352381 7,9.85714286 C7,8.27904762 8.343,7 10,7 C11.657,7 13,8.27904762 13,9.85714286 L13,9.85714286 Z" id="Stroke-146"></path>
            <path d="M18.103522,12.1547619 C18.377522,11.3595238 18.531022,10.512381 18.531022,9.63 C18.531022,8.7452381 18.376522,7.89619048 18.101022,7.09904762 L19.644022,6.05238095 C19.869022,5.9 19.921522,5.60238095 19.761022,5.38809524 L17.440522,2.2852381 C17.280022,2.07142857 16.968022,2.02142857 16.743022,2.17380952 L15.152522,3.21761905 C14.359022,2.63571429 13.427022,2.17904762 12.427022,1.89190476 L12.427022,0.476190476 C12.427022,2.64338815e-17 12.307022,7.66582565e-16 12.031022,7.66582565e-16 L8.03102202,7.66582565e-16 L7.42702202,0.476190476 L7.42702202,1.89190476 C6.42702202,2.18857143 5.53602202,2.6652381 4.72302202,3.27571429 L3.05852202,2.15 C2.83252202,1.99904762 2.53352202,2.05142857 2.37552202,2.26714286 L0.0890220154,5.38857143 C-0.0689779846,5.60428571 -0.0104779846,5.90095238 0.215522015,6.05190476 L1.92452202,7.18904762 C1.66852202,7.95952381 1.53002202,8.77904762 1.53002202,9.63 C1.53002202,10.5271429 1.69002202,11.387619 1.97302202,12.1942857 L0.417522015,13.2495238 C0.192522015,13.402381 0.140022015,13.6995238 0.300522015,13.9138095 L2.62152202,17.0166667 C2.78152202,17.2304762 3.09352202,17.2804762 3.31852202,17.1280952 L4.83502202,16.0638095 C5.62152202,16.6352381 6.42702202,17.0847619 7.42702202,17.3680952 L7.42702202,19.1957143 C7.42702202,19.4585714 7.75452202,20 8.03102202,20 L12.031022,20 C12.307022,20 12.427022,19.4585714 12.427022,19.1957143 L12.427022,17.3680952 C13.427022,17.0804762 14.363022,16.622381 15.158522,16.0385714 L16.617522,16.9933333 C16.844022,17.1442857 17.168522,17.0919048 17.327022,16.8761905 L19.626022,13.7542857 C19.784522,13.5390476 19.732522,13.2419048 19.506022,13.0914286 L18.103522,12.1547619 L18.103522,12.1547619 Z" id="Stroke-148" stroke-linejoin="round"></path>
        </g>
    </g>
</svg>