<?xml version="1.0" encoding="UTF-8"?>
<svg width="20px" height="23px" viewBox="0 0 20 23" version="1.1" xmlns="http://www.w3.org/2000/svg" xmlns:xlink="http://www.w3.org/1999/xlink">
    <!-- Generator: Sketch 49 (51002) - http://www.bohemiancoding.com/sketch -->
    <desc>Created with Sketch.</desc>
    <defs></defs>
    <g id="Page-1" stroke="none" stroke-width="1" fill="none" fill-rule="evenodd" stroke-linecap="round" stroke-linejoin="round">
        <g id="hata-Icon" transform="translate(1.000000, 1.000000)" stroke="#43484D" stroke-width="2">
            <path d="M8.5,10 L0,10 L0,0.5 C0,0.224 0.224,0 0.5,0 L8.5,0 C8.776,0 9,0.224 9,0.5 L9,9.5 C9,9.776 8.776,10 8.5,10 L8.5,10 Z" id="Stroke-64"></path>
            <path d="M17.5,12 L9.5,12 C9.224,12 9,11.776 9,11.5 L9,2 L17.5,2 C17.776,2 18,2.224 18,2.5 L18,11.5 C18,11.776 17.776,12 17.5,12 L17.5,12 Z" id="Stroke-66"></path>
            <path d="M0,10 L0,21" id="Stroke-68"></path>
        </g>
    </g>
</svg>