<?xml version="1.0" encoding="UTF-8"?>
<svg width="22px" height="22px" viewBox="0 0 22 22" version="1.1" xmlns="http://www.w3.org/2000/svg" xmlns:xlink="http://www.w3.org/1999/xlink">
    <!-- Generator: Sketch 49 (51002) - http://www.bohemiancoding.com/sketch -->
    <desc>Created with Sketch.</desc>
    <defs></defs>
    <g id="Page-1" stroke="none" stroke-width="1" fill="none" fill-rule="evenodd" stroke-linecap="round">
        <g id="post-Icon" transform="translate(1.000000, 1.000000)" stroke="#43484D" stroke-width="2">
            <path d="M12.3809524,19.7647059 C12.3809524,19.8945882 12.167619,20 11.9047619,20 L8.57142857,20 C8.30857143,20 8.0952381,19.8945882 8.0952381,19.7647059 L8.0952381,16.2352941 C8.0952381,16.1054118 8.30857143,16 8.57142857,16 L11.9047619,16 C12.167619,16 12.3809524,16.1054118 12.3809524,16.2352941 L12.3809524,19.7647059 L12.3809524,19.7647059 Z" id="Stroke-276"></path>
            <path d="M19.5238095,15.5 L0.476190476,15.5 C0.213333333,15.5 0,15.0525 0,14.809 L0,0.691 C0,0.4475 0.213333333,0.5 0.476190476,0.5 L19.5238095,0.5 C19.7866667,0.5 20,0.4475 20,0.691 L20,14.809 C20,15.0525 19.7866667,15.5 19.5238095,15.5 L19.5238095,15.5 Z" id="Stroke-421" stroke-linejoin="round"></path>
            <polygon id="Stroke-422" stroke-linejoin="round" points="0 8 20 8 20 4 0 4"></polygon>
        </g>
    </g>
</svg>