<?xml version="1.0" encoding="UTF-8"?>
<svg width="13px" height="13px" viewBox="0 0 13 13" version="1.1" xmlns="http://www.w3.org/2000/svg" xmlns:xlink="http://www.w3.org/1999/xlink">
    <!-- Generator: Sketch 49 (51002) - http://www.bohemiancoding.com/sketch -->
    <desc>Created with Sketch.</desc>
    <defs></defs>
    <g id="Page-1" stroke="none" stroke-width="1" fill="none" fill-rule="evenodd">
        <path d="M0.529425,5.625671 L6.31735,12.9064743 C6.417125,13.032029 6.580275,13.0303185 6.67875,12.9064743 L12.46635,5.625671 L12.2356,5.93699188 C12.5762,5.48848454 12.820275,4.94794938 12.93175,4.35370282 C12.976275,4.11593577 13,3.86961595 13,3.61748024 C13,1.62126337 11.531325,0.00273688689 9.71945,0.00273688689 C8.224775,0.00273688689 6.963775,1.10433386 6.56825,2.61064798 L6.43175,2.60791109 C6.0359,1.10125486 4.7749,0 3.280225,0 C1.468675,0 0,1.61818437 0,3.61474336 C0,3.86687906 0.0234,4.11285677 0.067925,4.35062382 C0.1794,4.94487039 0.423475,5.48574766 0.7644,5.934255" id="Stroke-1" fill="#FFFFFF"></path>
    </g>
</svg>